# xmcd CD database file
#
# Track frame offsets:
#	150
#	16827
#	34365
#	48200
#	64124
#	76339
#	92218
#	111634
#	126180
#	147379
#	162143
#	174859
#	189913
#	199590
#	210520
#
# Disc length: 3005 seconds
#
# Revision: 2
# Processed by: cddbd v1.5.2PL0 Copyright (c) Steve Scherf et al.
# Submitted via: CDex 1.70beta1
#
DISCID=c80bbb0f
DTITLE=unbekannt - Country und Trucker Hits
DYEAR=2004
DGENRE=Country
TTITLE0=Larry Schuba and Western Union - Ich möcht' so gerne mal nach Nashville
TTITLE1=Katja West and Daniel T. Coates - Komm unter meine Decke
TTITLE2=Mark Bender - Der Regenmann (Originalversion)
TTITLE3=Johnny Sanders - Ich möcht' so gern Dave Dudley Hör'n
TTITLE4=Frank Baum and Country Green - Oh Lonesome Me (instrumental)
TTITLE5=Katja West - Jambalaja
TTITLE6=Mark Bender - Wenn die Sonne tanzt
TTITLE7=Katja West - Hier in Ohio
TTITLE8=Country Green - Ruf Teddybär 1-4
TTITLE9=Mark Bender - Ehrlichkeit
TTITLE10=Daniel T. Coates - Der letzte Ami in Deutschland
TTITLE11=Mark Bender - Stille Wasser
TTITLE12=Black Bulls - Alles Coutry, oder was? (Instrumental)
TTITLE13=Coutry United - On the road again
TTITLE14=Coutry United - Take Me Home, Country Roads
EXTD=YEAR: 2004
EXTT0=
EXTT1=
EXTT2=
EXTT3=
EXTT4=
EXTT5=
EXTT6=
EXTT7=
EXTT8=
EXTT9=
EXTT10=
EXTT11=
EXTT12=
EXTT13=
EXTT14=
PLAYORDER=
